<svg xmlns="http://www.w3.org/2000/svg" viewBox="0 0 24 24" width="24" height="24" fill="none" stroke-linecap="round" stroke-linejoin="round">
  <g transform="translate(12, 12) scale(0.95) translate(-12, -12)">
    <!-- Thin white outer outline for high contrast on dark backgrounds -->
    <g stroke="#ffffff" stroke-width="3.4">
      <path d="M18 8A6 6 0 0 0 6 8c0 7-3 9-3 9h18s-3-2-3-9"></path>
      <path d="M13.73 21a2 2 0 0 1-3.46 0"></path>
      <line x1="2" y1="2" x2="22" y2="22"></line>
    </g>
    <!-- Foreground green stroke -->
    <g stroke="#10b981" stroke-width="2">
      <path d="M18 8A6 6 0 0 0 6 8c0 7-3 9-3 9h18s-3-2-3-9"></path>
      <path d="M13.73 21a2 2 0 0 1-3.46 0"></path>
      <line x1="2" y1="2" x2="22" y2="22"></line>
    </g>
  </g>
</svg>
